# xmcd
#
# Track frame offsets: 
#        150
#        14766
#        28876
#        43017
#        59753
#        75172
#        90537
#        109317
#        123219
#        136750
#        149927
#        167343
#
# Disc length: 2403 seconds
#
# Revision: 4
# Processed by: cddbd v1.5.2PL0 Copyright (c) Steve Scherf et al.
# Submitted via: ExactAudioCopy v1.3
#
DISCID=a409610c
DTITLE=Human Nature - Reach Out The Mowtown Record
DYEAR=2005
DGENRE=Rock
TTITLE0=Reach Out I'll Be There
TTITLE1=You Keep Me Hangin' On 
TTITLE2=Baby I Need Your Loving
TTITLE3=If You Don't Know Me By Now
TTITLE4=I Heard It Through The Grapevine
TTITLE5=Twenty-Five Miles
TTITLE6=I'll Be There
TTITLE7=My Girl
TTITLE8=I Want You Back
TTITLE9=Stop! In The Name Of Love
TTITLE10=You Are Everything
TTITLE11=The Tracks Of My Tears
EXTD=
EXTT0=
EXTT1=
EXTT2=
EXTT3=
EXTT4=
EXTT5=
EXTT6=
EXTT7=
EXTT8=
EXTT9=
EXTT10=
EXTT11=
PLAYORDER=
